<svg xmlns="http://www.w3.org/2000/svg" xmlns:xlink="http://www.w3.org/1999/xlink" width="2000" zoomAndPan="magnify" viewBox="0 0 1500 1499.999933" height="2000" preserveAspectRatio="xMidYMid meet" version="1.0"><defs><g/></defs><rect x="-150" width="1800" fill="#ffffff" y="-149.999993" height="1799.99992" fill-opacity="1"/><rect x="-150" width="1800" fill="#f8f7fc" y="-149.999993" height="1799.99992" fill-opacity="1"/><g fill="#5e2bc7" fill-opacity="1"><g transform="translate(677.212415, 949.32567)"><g><path d="M 306 0 L 136.203125 0 L -7.203125 -420 L 178.796875 -420 L 216.59375 -187.203125 L 226.203125 -187.203125 L 262.203125 -420 L 448.796875 -420 Z M 306 0 "/></g></g></g><g fill="#7a3ff2" fill-opacity="1"><g transform="translate(357.789291, 949.32567)"><g><path d="M 157.203125 -121.203125 L 175.203125 0 L 16.796875 0 L 16.796875 -420 L 165 -420 L 150.59375 -223.203125 L 158.40625 -223.203125 L 198.59375 -420 L 412.203125 -420 L 195 -214.203125 L 201.59375 -206.40625 C 206.800781 -212.40625 213.003906 -219.101562 220.203125 -226.5 C 227.398438 -233.894531 235.898438 -240.289062 245.703125 -245.6875 C 255.503906 -251.09375 266.601562 -253.796875 279 -253.796875 C 311.800781 -253.796875 338.597656 -243.09375 359.390625 -221.6875 C 380.191406 -200.289062 394.59375 -170.492188 402.59375 -132.296875 C 410.59375 -94.097656 411.796875 -50 406.203125 0 L 232.796875 0 C 237.992188 -20.394531 241.691406 -41.59375 243.890625 -63.59375 C 246.097656 -85.59375 246.097656 -106.09375 243.890625 -125.09375 C 241.691406 -144.09375 236.789062 -159.394531 229.1875 -171 C 221.59375 -182.601562 210.597656 -188.40625 196.203125 -188.40625 C 180.203125 -188.40625 168.898438 -181.90625 162.296875 -168.90625 C 155.703125 -155.90625 154.003906 -140.003906 157.203125 -121.203125 Z M 157.203125 -121.203125 "/></g></g></g><g fill="#2b2b33" fill-opacity="1"><g transform="translate(1114.460558, 942.934142)"><g><path d="M -57.296875 -108.21875 L -2.671875 -89.53125 C 3.148438 -87.539062 7.960938 -84.46875 11.765625 -80.3125 C 15.566406 -76.15625 17.945312 -71.019531 18.90625 -64.90625 C 19.875 -58.800781 19.015625 -51.820312 16.328125 -43.96875 C 12.503906 -32.800781 6.742188 -25.265625 -0.953125 -21.359375 C -8.648438 -17.453125 -17.195312 -17.101562 -26.59375 -20.3125 L -81 -38.921875 L -74.890625 -56.765625 L -23.203125 -39.09375 C -16.234375 -36.707031 -10.859375 -36.457031 -7.078125 -38.34375 C -3.296875 -40.238281 -0.453125 -43.976562 1.453125 -49.5625 C 2.796875 -53.488281 3.210938 -56.90625 2.703125 -59.8125 C 2.203125 -62.71875 0.742188 -65.222656 -1.671875 -67.328125 C -4.085938 -69.441406 -7.472656 -71.242188 -11.828125 -72.734375 L -63.40625 -90.375 Z M -57.296875 -108.21875 "/></g></g></g><g fill="#2b2b33" fill-opacity="1"><g transform="translate(1145.319068, 852.714078)"><g><path d="M 26.984375 -78.890625 L 19.984375 -58.4375 L -18.65625 -49.734375 L 6.5625 -19.171875 L 0 0 L -33.96875 -42.90625 L -83.828125 -30.65625 L -77.0625 -50.421875 L -40.453125 -58.21875 L -64.734375 -86.453125 L -58.140625 -105.734375 L -25.34375 -64.921875 Z M 26.984375 -78.890625 "/></g></g></g><g fill="#2b2b33" fill-opacity="1"><g transform="translate(1172.582804, 773.003945)"><g><path d="M -67.921875 -77.15625 L 5.75 -16.8125 L 0.28125 -0.8125 L -73.390625 -61.15625 Z M -67.921875 -77.15625 "/></g></g></g><g fill="#2b2b33" fill-opacity="1"><g transform="translate(1189.575755, 723.322186)"><g><path d="M -57.296875 -108.21875 L -2.671875 -89.53125 C 3.148438 -87.539062 7.960938 -84.46875 11.765625 -80.3125 C 15.566406 -76.15625 17.945312 -71.019531 18.90625 -64.90625 C 19.875 -58.800781 19.015625 -51.820312 16.328125 -43.96875 C 12.503906 -32.800781 6.742188 -25.265625 -0.953125 -21.359375 C -8.648438 -17.453125 -17.195312 -17.101562 -26.59375 -20.3125 L -81 -38.921875 L -74.890625 -56.765625 L -23.203125 -39.09375 C -16.234375 -36.707031 -10.859375 -36.457031 -7.078125 -38.34375 C -3.296875 -40.238281 -0.453125 -43.976562 1.453125 -49.5625 C 2.796875 -53.488281 3.210938 -56.90625 2.703125 -59.8125 C 2.203125 -62.71875 0.742188 -65.222656 -1.671875 -67.328125 C -4.085938 -69.441406 -7.472656 -71.242188 -11.828125 -72.734375 L -63.40625 -90.375 Z M -57.296875 -108.21875 "/></g></g></g><g fill="#2b2b33" fill-opacity="1"><g transform="translate(1220.434265, 633.102121)"><g><path d="M 3.640625 -10.625 L -80.796875 -39.5 L -74.671875 -57.40625 L 9.765625 -28.53125 Z M 3.640625 -10.625 "/></g></g></g></svg>